<svg width="24" height="24" viewBox="0 0 24 24" fill="none" xmlns="http://www.w3.org/2000/svg">
<path d="M19.9043 11.9665H4.09568C3.47311 11.9665 2.96649 12.4731 2.96649 13.0957C2.96649 13.7183 3.47311 14.2249 4.09568 14.2249H19.9043C20.5269 14.2249 21.0335 13.7183 21.0335 13.0957C21.0335 12.4731 20.5269 11.9665 19.9043 11.9665Z" fill="#1B1C57"/>
<path d="M20.0081 13.4864C19.8041 13.4292 19.5994 13.5451 19.5429 13.7454L19.5136 13.8485H4.48707L4.45697 13.7454C4.40051 13.5451 4.19426 13.4307 3.99175 13.4864C3.79149 13.5436 3.67631 13.7522 3.73355 13.9516L4.77088 17.5831C5.09231 18.7085 6.1342 19.4944 7.30404 19.4944H16.6951C17.8657 19.4944 18.9068 18.7085 19.2283 17.5831L20.2656 13.9516C20.3236 13.7521 20.2076 13.5436 20.0081 13.4864ZM7.30478 17.9888C6.80342 17.9888 6.35626 17.6523 6.21924 17.1698L5.73069 15.4579C5.67349 15.2577 5.78941 15.0499 5.98889 14.9927C6.19063 14.9355 6.39766 15.0522 6.45412 15.2517L6.94267 16.9635C6.98935 17.1239 7.13763 17.2368 7.30475 17.2368C7.51252 17.2368 7.68115 17.4054 7.68115 17.6132C7.68119 17.821 7.51255 17.9888 7.30478 17.9888Z" fill="#1B1C57"/>
<path d="M8.02756 18.7808C7.84163 18.6897 7.61653 18.7627 7.52242 18.9494L6.76964 20.455C6.67705 20.6409 6.75231 20.8668 6.93828 20.9601C6.99322 20.9872 7.05046 21 7.10692 21C7.24468 21 7.37718 20.924 7.44341 20.7915L8.1962 19.2859C8.28879 19.0999 8.21349 18.8741 8.02756 18.7808Z" fill="#1B1C57"/>
<path d="M17.2304 20.4557L16.4776 18.9501C16.3843 18.7634 16.1584 18.6889 15.9725 18.7815C15.7865 18.8748 15.7112 19.1007 15.8038 19.2866L16.5566 20.7922C16.6228 20.924 16.7553 21 16.8931 21C16.9496 21 17.0068 20.9872 17.0617 20.9609C17.2477 20.8675 17.323 20.6417 17.2304 20.4557Z" fill="#1B1C57"/>
<path d="M18.0863 3C17.7024 3 17.341 3.14979 17.0693 3.42158L15.8746 4.61626C15.7278 4.76305 15.7278 5.0017 15.8746 5.14849C16.0214 5.29529 16.2601 5.29529 16.4069 5.14849L17.6015 3.95455C17.7302 3.82508 17.9026 3.75356 18.0901 3.75356C18.4679 3.75356 18.7751 4.0607 18.7751 4.43858V12.3429C18.7751 12.5507 18.9437 12.7193 19.1515 12.7193C19.3593 12.7193 19.5279 12.5507 19.5286 12.3422V4.43784C19.5287 3.64515 18.8843 3 18.0863 3Z" fill="#1B1C57"/>
<path d="M16.7832 4.99265L16.0304 4.23987C15.9446 4.15406 15.8249 4.11415 15.7029 4.13447L13.821 4.44313C13.6825 4.46571 13.5688 4.56356 13.5244 4.69607C13.4799 4.82857 13.5138 4.9761 13.6117 5.07621L15.8701 7.40234C15.9416 7.47687 16.0402 7.51678 16.1396 7.51678C16.175 7.51678 16.2111 7.51152 16.2465 7.50097C16.3804 7.46183 16.4821 7.35117 16.5092 7.21415L16.8856 5.33219C16.9104 5.20946 16.872 5.08221 16.7832 4.99265Z" fill="#1B1C57"/>
<path d="M11.8893 7.56041C11.7425 7.41362 11.5039 7.41362 11.3571 7.56041L10.6043 8.31319C10.4575 8.45999 10.4575 8.69864 10.6043 8.84543C10.6781 8.91844 10.7744 8.95535 10.8708 8.95535C10.9672 8.95535 11.0635 8.91847 11.1365 8.84543L11.8893 8.09265C12.0361 7.94582 12.0361 7.70721 11.8893 7.56041Z" fill="#1B1C57"/>
<path d="M13.3949 9.06597C13.2481 8.91917 13.0094 8.91917 12.8626 9.06597L12.1099 9.81875C11.9631 9.96554 11.9631 10.2042 12.1099 10.351C12.1836 10.424 12.28 10.4609 12.3763 10.4609C12.4727 10.4609 12.569 10.424 12.6421 10.351L13.3949 9.5982C13.5417 9.45141 13.5417 9.21276 13.3949 9.06597Z" fill="#1B1C57"/>
<path d="M14.1477 6.80759C14.0009 6.6608 13.7623 6.6608 13.6155 6.80759L12.8627 7.56037C12.7159 7.70717 12.7159 7.94581 12.8627 8.09261C12.9365 8.16562 13.0328 8.20253 13.1292 8.20253C13.2256 8.20253 13.3219 8.16565 13.395 8.09261L14.1477 7.33983C14.2945 7.19303 14.2945 6.95439 14.1477 6.80759Z" fill="#1B1C57"/>
</svg>
