<svg width="24" height="24" viewBox="0 0 24 24" fill="none" xmlns="http://www.w3.org/2000/svg">
<path d="M17.85 11.0769C19.5535 11.0769 21 12.4964 21 14.3077V17.0769H19.65V18H18.75V17.0769H5.25V18H4.35V17.0769H3V14.3077C3 12.5606 4.39756 11.0769 6.15 11.0769H17.85ZM16.95 6C18.1599 6 19.2003 6.99766 19.2 8.30769L19.2003 10.5128C18.7911 10.2826 18.3332 10.1538 17.85 10.1538L16.95 10.1534C16.95 9.36294 16.319 8.76923 15.6 8.76923H12.9C12.5543 8.76923 12.2389 8.90253 12 9.12176C11.7615 8.9027 11.446 8.76923 11.1 8.76923H8.4C7.65457 8.76923 7.05024 9.38889 7.05 10.1534L6.15 10.1538C5.6669 10.1538 5.2092 10.2825 4.8 10.5126V8.30769C4.8 7.06673 5.77046 6 7.05 6H16.95ZM11.1 9.69208C11.3442 9.69208 11.55 9.92285 11.55 10.1538L7.95 10.1534C7.95 9.871 8.16922 9.69231 8.4 9.69231L11.1 9.69208ZM15.6 9.69541C15.8546 9.69207 16.0498 9.9169 16.05 10.1534H12.45C12.45 9.86697 12.6692 9.69231 12.9 9.69231L15.6 9.69541Z" fill="#1B1C57"/>
</svg>
