<svg width="24" height="24" viewBox="0 0 24 24" fill="none" xmlns="http://www.w3.org/2000/svg">
<path d="M20.5378 7.97141L13.0177 3.28445C12.3982 2.90186 11.5998 2.90577 10.9839 3.29267L3.45608 7.97532C2.98863 8.26911 2.85947 8.86882 3.167 9.31479C3.47494 9.76075 4.10311 9.88437 4.57097 9.59019L12.0078 4.96387L19.4356 9.5941C19.6062 9.69934 19.7969 9.74902 19.9855 9.74902C20.3184 9.74902 20.6432 9.59371 20.8371 9.30814C21.1414 8.85982 21.0069 8.26207 20.5378 7.97141Z" fill="#1B1C57"/>
<path d="M18.158 14.0648C18.1005 13.7273 17.8143 13.4776 17.4806 13.4776H17.097L16.9512 11.9222C16.7956 10.2586 15.4488 8.99998 13.8186 8.99998H10.182C8.55138 8.99998 7.20499 10.259 7.04897 11.9222L6.9036 13.4776H6.51962C6.1855 13.4776 5.89971 13.7273 5.84149 14.0648L5.27066 17.3826C5.19988 17.7938 5.31328 18.2171 5.5751 18.5362C5.82703 18.8437 6.19806 19.027 6.58622 19.0407V19.5916C6.58622 20.3715 7.19586 21 7.95734 21H8.39041C9.15112 21 9.7699 20.3715 9.7699 19.5916V19.0497H14.2345V19.5904C14.2345 20.3707 14.8483 21 15.609 21H16.0425C16.8032 21 17.4178 20.3707 17.4178 19.5904V19.0407C17.806 19.027 18.1747 18.8452 18.4259 18.5382C18.6877 18.2183 18.7996 17.7973 18.7296 17.3853L18.158 14.0648ZM7.79294 17.77C7.15096 17.77 6.63037 17.2367 6.63037 16.5777C6.63037 15.9188 7.15096 15.3851 7.79294 15.3851C8.43531 15.3851 8.95628 15.9184 8.95628 16.5777C8.95628 17.2367 8.43531 17.77 7.79294 17.77ZM8.08292 13.4776L8.21726 12.0427C8.31506 10.9995 9.1595 10.2137 10.182 10.2137H10.3917V10.6647C10.3917 11.056 10.695 11.3678 11.0763 11.3678H12.9243C13.3056 11.3678 13.6142 11.056 13.6142 10.6647V10.2141H13.8186C14.8411 10.2141 15.6855 10.9999 15.783 12.0431L15.9177 13.478L8.08292 13.4776ZM16.2061 17.77C15.5641 17.77 15.0436 17.2367 15.0436 16.5777C15.0436 15.9188 15.5641 15.3851 16.2061 15.3851C16.8485 15.3851 17.3695 15.9184 17.3695 16.5777C17.3695 17.2367 16.8485 17.77 16.2061 17.77Z" fill="#1B1C57"/>
</svg>
