<svg width="24" height="24" viewBox="0 0 24 24" fill="none" xmlns="http://www.w3.org/2000/svg">
<path fill-rule="evenodd" clip-rule="evenodd" d="M18.3323 1.95686C18.8813 1.95686 19.3272 2.40497 19.3272 2.95674C19.3272 3.5085 18.8813 3.95661 18.3323 3.95661C17.7834 3.95661 17.3375 3.5085 17.3375 2.95674C17.3392 2.40497 17.7834 1.95686 18.3323 1.95686ZM18.5985 10.6648C19.4569 11.9522 20.5432 12.3468 21.9539 11.4757C22.0005 11.9606 22.0121 12.4555 21.9872 12.9571C21.7094 18.5016 17.0131 22.7703 11.4968 22.491C5.98213 22.2101 1.73508 17.49 2.01289 11.9472C2.28904 6.40278 7.14828 2.08728 12.663 2.36651C12.1739 3.90478 12.5881 5.27082 13.8324 5.73565C12.7045 9.37732 15.2232 11.76 18.5985 10.6648ZM6.99523 9.94748C7.82202 9.94748 8.49077 10.6213 8.49077 11.4506C8.49077 12.28 7.82035 12.9538 6.99523 12.9538C6.16845 12.9538 5.4997 12.28 5.4997 11.4506C5.4997 10.6213 6.17011 9.94748 6.99523 9.94748ZM11.7064 11.8636C12.1822 11.8636 12.5681 12.2515 12.5681 12.7297C12.5681 13.2079 12.1822 13.5958 11.7064 13.5958C11.2306 13.5958 10.8447 13.2079 10.8447 12.7297C10.843 12.2515 11.229 11.8636 11.7064 11.8636ZM7.96675 15.4317C8.54733 15.4317 9.01811 15.9049 9.01811 16.4885C9.01811 17.072 8.54733 17.5452 7.96675 17.5452C7.38617 17.5452 6.91538 17.072 6.91538 16.4885C6.91538 15.9032 7.38617 15.4317 7.96675 15.4317ZM10.2325 7.34581C10.6883 7.34581 11.056 7.717 11.056 8.17346C11.056 8.6316 10.6867 9.00111 10.2325 9.00111C9.77669 9.00111 9.40905 8.62992 9.40905 8.17346C9.40905 7.717 9.77836 7.34581 10.2325 7.34581ZM14.7075 15.8013C15.471 15.8013 16.0882 16.4232 16.0882 17.189C16.0882 17.9565 15.4694 18.5768 14.7075 18.5768C13.9439 18.5768 13.3267 17.9548 13.3267 17.189C13.3267 16.4232 13.9456 15.8013 14.7075 15.8013ZM17.6154 5.81925C18.1277 5.81925 18.5436 6.23725 18.5436 6.75224C18.5436 7.26722 18.1277 7.68523 17.6154 7.68523C17.103 7.68523 16.6871 7.26722 16.6871 6.75224C16.6871 6.23725 17.103 5.81925 17.6154 5.81925Z" fill="#1B1C57"/>
</svg>
