<svg width="24" height="24" viewBox="0 0 24 24" fill="none" xmlns="http://www.w3.org/2000/svg">
<path d="M12.0027 0C5.37442 0 0 5.37201 0 11.9973C0 16.9088 2.9578 21.1293 7.18553 22.9878C7.15338 22.1522 7.18018 21.1453 7.39451 20.2348C7.62492 19.26 8.93772 13.6951 8.93772 13.6951C8.93772 13.6951 8.5519 12.9292 8.5519 11.7992C8.5519 10.021 9.58072 8.6927 10.8667 8.6927C11.9598 8.6927 12.485 9.51217 12.485 10.4923C12.485 11.5903 11.783 13.2292 11.424 14.7502C11.1239 16.025 12.0616 17.0587 13.3208 17.0587C15.5928 17.0587 17.1253 14.1397 17.1253 10.6798C17.1253 8.05 15.3517 6.08436 12.1313 6.08436C8.49297 6.08436 6.22103 8.79982 6.22103 11.8313C6.22103 12.8757 6.53182 13.6149 7.01407 14.1826C7.23375 14.445 7.2659 14.5521 7.18553 14.852C7.12659 15.0716 6.99799 15.6019 6.93905 15.8161C6.85868 16.1215 6.61219 16.2285 6.33892 16.1161C4.66175 15.4305 3.87943 13.5988 3.87943 11.5314C3.87943 8.12498 6.75686 4.03839 12.4582 4.03839C17.0395 4.03839 20.0563 7.35371 20.0563 10.9101C20.0563 15.6179 17.4361 19.1315 13.578 19.1315C12.2814 19.1315 11.065 18.4298 10.647 17.6371C10.647 17.6371 9.95044 20.4008 9.8004 20.9364C9.54855 21.863 9.05024 22.7843 8.59477 23.5072C9.69961 23.833 10.8454 23.999 11.9973 24C18.6256 24 24 18.6279 24 12.0027C24 5.37737 18.631 0 12.0027 0Z" fill="#1B1C57"/>
</svg>
