<svg width="24" height="24" viewBox="0 0 24 24" fill="none" xmlns="http://www.w3.org/2000/svg">
<path d="M20.0913 6.75005H16.8243C16.3223 6.75005 15.9155 7.15254 15.9155 7.64971V9.98517H13.5569C13.0548 9.98517 12.648 10.3875 12.648 10.8847V13.2203H10.2894C9.78728 13.2203 9.38064 13.6233 9.38064 14.1199V16.568H6.90879C6.66759 16.568 6.43646 16.6627 6.26611 16.8312C6.09562 16.9999 6 17.2298 6 17.4676L6.00029 19.3499C6.00029 19.8476 6.40723 20.25 6.90904 20.25H20.0913C20.5934 20.25 21 19.8476 21 19.3499V7.64968C21.0001 7.15254 20.5934 6.75005 20.0913 6.75005Z" fill="#1B1C57"/>
<path d="M15.573 3.93402C15.3318 3.69296 14.9368 3.68833 14.6897 3.92287C10.6823 7.72916 6.86987 11.4468 3.18307 15.0412C3.06576 15.1556 3 15.311 3 15.4722V19.6408C3 19.9767 3.27959 20.25 3.6247 20.25C3.96948 20.25 4.24956 19.9768 4.24956 19.6408V15.7243C7.87653 12.1878 11.6263 8.53351 15.5614 4.79531C15.8083 4.56081 15.8134 4.17494 15.573 3.93402Z" fill="#1B1C57"/>
</svg>
